HIERARCHY
ROOT Hips
{
    OFFSET   0.000000   0.000000   0.000000
    CHANNELS 6 Xposition Yposition Zposition Zrotation Xrotation Yrotation
    JOINT Chest
    {
        OFFSET   0.000000   8.007230   0.000000
        CHANNELS 3 Zrotation Xrotation Yrotation
        JOINT Chest2
        {
            OFFSET   0.000000  22.077100   0.000000
            CHANNELS 3 Zrotation Xrotation Yrotation
            JOINT Neck
            {
                OFFSET   0.000000  23.255100   0.000000
                CHANNELS 3 Zrotation Xrotation Yrotation
                JOINT Head
                {
                    OFFSET   0.000000  14.370100   1.956600
                    CHANNELS 3 Zrotation Xrotation Yrotation
                    End Site
                    {
                        OFFSET   0.000000  19.566000   0.000000
                    }
                }
            }
            JOINT LeftCollar
            {
                OFFSET   3.911900  19.017000  -0.467063
                CHANNELS 3 Zrotation Xrotation Yrotation
                JOINT LeftShoulder
                {
                    OFFSET  10.383700   0.000000   0.000000
                    CHANNELS 3 Zrotation Xrotation Yrotation
                    JOINT LeftElbow
                    {
                        OFFSET  26.662100   0.001193   0.000980
                        CHANNELS 3 Zrotation Xrotation Yrotation
                        JOINT LeftWrist
                        {
                            OFFSET  28.869000  -0.000059  -0.000082
                            CHANNELS 3 Zrotation Xrotation Yrotation
                            JOINT LeftFinger0
                            {
                                OFFSET   2.044650  -2.323450   3.252850
                                CHANNELS 3 Zrotation Xrotation Yrotation
                                JOINT LeftFinger01
                                {
                                    OFFSET   3.088130   0.000000   0.000000
                                    CHANNELS 3 Zrotation Xrotation Yrotation
                                    JOINT LeftFinger02
                                    {
                                        OFFSET   2.639460   0.000000   0.000000
                                        CHANNELS 3 Zrotation Xrotation Yrotation
                                        End Site
                                        {
                                            OFFSET   2.582190   0.000000   0.000000
                                        }
                                    }
                                }
                            }
                            JOINT LeftFinger1
                            {
                                OFFSET   8.364480   0.000000   3.252850
                                CHANNELS 3 Zrotation Xrotation Yrotation
                                JOINT LeftFinger11
                                {
                                    OFFSET   4.646930   0.000000   0.000000
                                    CHANNELS 3 Zrotation Xrotation Yrotation
                                    JOINT LeftFinger12
                                    {
                                        OFFSET   2.323470   0.000000   0.000000
                                        CHANNELS 3 Zrotation Xrotation Yrotation
                                        End Site
                                        {
                                            OFFSET   2.273050   0.000000   0.000000
                                        }
                                    }
                                }
                            }
                            JOINT LeftFinger2
                            {
                                OFFSET   8.364490   0.000016   1.078090
                                CHANNELS 3 Zrotation Xrotation Yrotation
                                JOINT LeftFinger21
                                {
                                    OFFSET   5.111610   0.000000   0.000000
                                    CHANNELS 3 Zrotation Xrotation Yrotation
                                    JOINT LeftFinger22
                                    {
                                        OFFSET   2.788150   0.000016   0.000000
                                        CHANNELS 3 Zrotation Xrotation Yrotation
                                        End Site
                                        {
                                            OFFSET   2.727660   0.000000   0.000000
                                        }
                                    }
                                }
                            }
                            JOINT LeftFinger3
                            {
                                OFFSET   7.899780   0.000015  -1.078090
                                CHANNELS 3 Zrotation Xrotation Yrotation
                                JOINT LeftFinger31
                                {
                                    OFFSET   4.646930   0.000000   0.000000
                                    CHANNELS 3 Zrotation Xrotation Yrotation
                                    JOINT LeftFinger32
                                    {
                                        OFFSET   2.323470   0.000000   0.000000
                                        CHANNELS 3 Zrotation Xrotation Yrotation
                                        End Site
                                        {
                                            OFFSET   2.273050   0.000000   0.000000
                                        }
                                    }
                                }
                            }
                            JOINT LeftFinger4
                            {
                                OFFSET   7.435090   0.000000  -3.252850
                                CHANNELS 3 Zrotation Xrotation Yrotation
                                JOINT LeftFinger41
                                {
                                    OFFSET   3.717550   0.000000   0.000000
                                    CHANNELS 3 Zrotation Xrotation Yrotation
                                    JOINT LeftFinger42
                                    {
                                        OFFSET   1.858770   0.000000   0.000000
                                        CHANNELS 3 Zrotation Xrotation Yrotation
                                        End Site
                                        {
                                            OFFSET   1.818440   0.000000   0.000000
                                        }
                                    }
                                }
                            }
                        }
                    }
                }
            }
            JOINT RightCollar
            {
                OFFSET  -3.911910  19.017000  -0.467062
                CHANNELS 3 Zrotation Xrotation Yrotation
                JOINT RightShoulder
                {
                    OFFSET -10.383700   0.000014   0.000000
                    CHANNELS 3 Zrotation Xrotation Yrotation
                    JOINT RightElbow
                    {
                        OFFSET -26.662100   0.001225   0.001091
                        CHANNELS 3 Zrotation Xrotation Yrotation
                        JOINT RightWrist
                        {
                            OFFSET -28.869000  -0.000020  -0.000085
                            CHANNELS 3 Zrotation Xrotation Yrotation
                            JOINT RightFinger0
                            {
                                OFFSET  -2.044650  -2.323490   3.252850
                                CHANNELS 3 Zrotation Xrotation Yrotation
                                JOINT RightFinger01
                                {
                                    OFFSET  -3.088130   0.000000   0.000000
                                    CHANNELS 3 Zrotation Xrotation Yrotation
                                    JOINT RightFinger02
                                    {
                                        OFFSET  -2.639460   0.000000   0.000000
                                        CHANNELS 3 Zrotation Xrotation Yrotation
                                        End Site
                                        {
                                            OFFSET  -2.582190   0.000000   0.000000
                                        }
                                    }
                                }
                            }
                            JOINT RightFinger1
                            {
                                OFFSET  -8.364480   0.000000   3.252850
                                CHANNELS 3 Zrotation Xrotation Yrotation
                                JOINT RightFinger11
                                {
                                    OFFSET  -4.646930   0.000000   0.000000
                                    CHANNELS 3 Zrotation Xrotation Yrotation
                                    JOINT RightFinger12
                                    {
                                        OFFSET  -2.323470   0.000000   0.000000
                                        CHANNELS 3 Zrotation Xrotation Yrotation
                                        End Site
                                        {
                                            OFFSET  -2.273050   0.000000   0.000000
                                        }
                                    }
                                }
                            }
                            JOINT RightFinger2
                            {
                                OFFSET  -8.364480   0.000000   1.078090
                                CHANNELS 3 Zrotation Xrotation Yrotation
                                JOINT RightFinger21
                                {
                                    OFFSET  -5.111620   0.000000   0.000000
                                    CHANNELS 3 Zrotation Xrotation Yrotation
                                    JOINT RightFinger22
                                    {
                                        OFFSET  -2.788160   0.000000   0.000000
                                        CHANNELS 3 Zrotation Xrotation Yrotation
                                        End Site
                                        {
                                            OFFSET  -2.727660   0.000000   0.000000
                                        }
                                    }
                                }
                            }
                            JOINT RightFinger3
                            {
                                OFFSET  -7.899780   0.000000  -1.078090
                                CHANNELS 3 Zrotation Xrotation Yrotation
                                JOINT RightFinger31
                                {
                                    OFFSET  -4.646930   0.000000   0.000000
                                    CHANNELS 3 Zrotation Xrotation Yrotation
                                    JOINT RightFinger32
                                    {
                                        OFFSET  -2.323470   0.000000   0.000000
                                        CHANNELS 3 Zrotation Xrotation Yrotation
                                        End Site
                                        {
                                            OFFSET  -2.273050   0.000000   0.000000
                                        }
                                    }
                                }
                            }
                            JOINT RightFinger4
                            {
                                OFFSET  -7.435090   0.000000  -3.252850
                                CHANNELS 3 Zrotation Xrotation Yrotation
                                JOINT RightFinger41
                                {
                                    OFFSET  -3.717550   0.000000   0.000000
                                    CHANNELS 3 Zrotation Xrotation Yrotation
                                    JOINT RightFinger42
                                    {
                                        OFFSET  -1.858760   0.000000   0.000000
                                        CHANNELS 3 Zrotation Xrotation Yrotation
                                        End Site
                                        {
                                            OFFSET  -1.818440   0.000000   0.000000
                                        }
                                    }
                                }
                            }
                        }
                    }
                }
            }
        }
    }
    JOINT LeftHip
    {
        OFFSET   9.783030   0.000000   0.000000
        CHANNELS 3 Zrotation Xrotation Yrotation
        JOINT LeftKnee
        {
            OFFSET   0.000063 -41.789100   0.000608
            CHANNELS 3 Zrotation Xrotation Yrotation
            JOINT LeftAnkle
            {
                OFFSET   0.000048 -41.133200  -0.000184
                CHANNELS 3 Zrotation Xrotation Yrotation
                JOINT LeftToe
                {
                    OFFSET   0.000000  -6.358960  14.674500
                    CHANNELS 3 Zrotation Xrotation Yrotation
                    End Site
                    {
                        OFFSET   0.000000   0.000000   3.913200
                    }
                }
            }
        }
    }
    JOINT RightHip
    {
        OFFSET  -9.783030   0.000000   0.000000
        CHANNELS 3 Zrotation Xrotation Yrotation
        JOINT RightKnee
        {
            OFFSET   0.000071 -41.789100   0.001239
            CHANNELS 3 Zrotation Xrotation Yrotation
            JOINT RightAnkle
            {
                OFFSET   0.000037 -41.133200  -0.000166
                CHANNELS 3 Zrotation Xrotation Yrotation
                JOINT RightToe
                {
                    OFFSET   0.000000  -6.358960  14.674500
                    CHANNELS 3 Zrotation Xrotation Yrotation
                    End Site
                    {
                        OFFSET   0.000000   0.000000   3.913200
                    }
                }
            }
        }
    }
}
MOTION
Frames: 5
Frame Time:   0.016667
  0.248873  89.555600  -1.607230  -2.849750  -5.828360  -3.622250   0.241728   4.190630   0.366249   0.458355   8.382690   0.717603   2.403180  -0.121681   0.007018   3.947950  -0.243348   1.720300  -4.230600  -1.663710   0.079625 -73.101900  18.853300  -1.362640  -0.965771  -3.807400 -17.946900  16.311200 -12.952200   7.308920  37.642200  27.344900 -55.042400 -30.666100   0.002876   0.006448 -10.324600   0.001817   0.001142 -31.040500   6.083570  -9.988090 -25.839800   0.002089   0.001142 -18.087800   0.001461  -0.004413 -28.210800  -2.039650   3.797090 -34.010500   0.004189   0.002461 -22.650900   0.001807   0.002799 -28.286600  -2.044280   3.794590 -34.623200   0.003199   0.005684 -23.049900   0.002096   0.000219 -29.437900  -2.121310   3.752460 -44.276300   0.002104  -0.001286 -29.477700  -0.015482   0.000000  12.327000   0.547404   3.954390  67.627700  12.000800  -3.749390  -2.069880  -4.097070  14.477200 -10.964100  -5.998580   1.878270 -37.707800  24.257200  56.230600  27.334300   0.004763  -0.002383   8.667150   0.000000   0.000500  30.194500   8.236230  13.821700  25.537700  -0.000847  -0.005329  17.876400  -0.000244  -0.000121  28.482100   3.265790   5.994300  38.191600  -0.004778  -0.003817  25.442100  -0.003713  -0.000350  27.638900   2.090500   3.955520  30.369800  -0.003561  -0.005712  20.226300  -0.002697  -0.000231  31.872800   0.903572   1.448670  47.826100  -0.002642  -0.006388  31.852200  -0.006173  -0.002198   3.277640   8.292700   3.682650   0.990789   0.334940   7.778590  -1.466230  -3.860730   3.518920  -0.000000   0.000000   0.000000   1.276780   7.041070  -4.513440   0.008926   1.551700 -10.659500   1.672870  -3.336940  -0.910821  -0.000000   0.000000   0.000000
  0.248501  89.555600  -1.578940  -2.853550  -5.828120  -3.659060   0.248442   4.181540   0.370897   0.471544   8.364560   0.726467   2.409280  -0.118125   0.007022   3.958050  -0.237182   1.741650  -4.247650  -1.670640   0.079630 -73.109000  18.838100  -1.349330  -0.967255  -3.806880 -17.922200  16.302800 -12.952100   7.309120  37.648100  27.368400 -55.069400 -30.666100   0.002868   0.006452 -10.324600   0.001807   0.001138 -31.040500   6.088020  -9.994820 -25.839600   0.002094   0.001128 -18.087600   0.001470  -0.004409 -28.210800  -2.039750   3.797150 -34.010500   0.004234   0.002476 -22.650500   0.001834   0.002811 -28.286600  -2.044380   3.794650 -34.616300   0.003212   0.005687 -23.049900   0.002104   0.000243 -29.437900  -2.121390   3.752540 -44.268600   0.002112  -0.001274 -29.477700  -0.015499   0.000032  12.326600   0.552117   3.961380  67.610600  12.093900  -3.724740  -2.036130  -4.045490  14.402200 -10.984000  -5.963310   1.842130 -37.690200  24.259600  56.262500  27.362800   0.004767  -0.002395   8.681370   0.000000   0.000495  30.193900   8.236380  13.821500  25.537700  -0.000846  -0.005336  17.876400  -0.000244  -0.000120  28.481400   3.269550   6.001190  38.195000  -0.004771  -0.003811  25.442100  -0.003705  -0.000350  27.638800   2.090650   3.961400  30.350300  -0.003564  -0.005719  20.213300  -0.002682  -0.000233  31.872800   0.903449   1.448590  47.826100  -0.002635  -0.006392  31.852200  -0.006173  -0.002199   3.266240   8.323840   3.690980   0.989995   0.307461   7.790860  -1.462090  -3.866060   3.535860   0.000000   0.000000  -0.000000   1.270780   7.061480  -4.505770   0.009478   1.547740 -10.640400   1.678370  -3.351360  -0.901251   0.000000   0.000000  -0.000000
  0.248129  89.555700  -1.531410  -2.859680  -5.827730  -3.718890   0.260240   4.167380   0.379103   0.494711   8.336340   0.742119   2.420910  -0.112800   0.007032   3.977210  -0.227721   1.763030  -4.274540  -1.686220   0.079635 -73.128900  18.813600  -1.327260  -0.967669  -3.800490 -17.878700  16.290300 -12.951800   7.309400  37.654600  27.390200 -55.099300 -30.666100   0.002844   0.006481 -10.324700   0.001773   0.001134 -31.041100   6.094270 -10.004100 -25.839300   0.002109   0.001099 -18.087400   0.001487  -0.004402 -28.210700  -2.039850   3.797210 -34.010500   0.004345   0.002515 -22.650200   0.001901   0.002840 -28.286500  -2.044490   3.794710 -34.609500   0.003243   0.005694 -23.049900   0.002123   0.000302 -29.437900  -2.121460   3.752620 -44.260900   0.002130  -0.001242 -29.477700  -0.015543   0.000093  12.326200   0.556825   3.974190  67.580100  12.260400  -3.685430  -1.979470  -3.957180  14.263700 -11.018800  -5.897410   1.779730 -37.647900  24.250800  56.314500  27.412400   0.004771  -0.002409   8.706180   0.000000   0.000480  30.193300   8.236540  13.821300  25.537800  -0.000845  -0.005351  17.876500  -0.000243  -0.000119  28.480200   3.275730   6.012490  38.201400  -0.004754  -0.003794  25.442100  -0.003684  -0.000349  27.638700   2.090790   3.970350  30.318200  -0.003570  -0.005734  20.191900  -0.002647  -0.000235  31.872800   0.903219   1.448450  47.826100  -0.002621  -0.006404  31.852200  -0.006174  -0.002199   3.247710   8.373620   3.703110   0.987753   0.276605   7.813300  -1.454710  -3.879840   3.562580   0.000000   0.000000  -0.000000   1.262340   7.092710  -4.494790   0.009719   1.543840 -10.609600   1.686540  -3.376940  -0.884408   0.000000   0.000000   0.000000
  0.249492  89.555900  -1.492500  -2.864030  -5.827410  -3.763600   0.271119   4.157500   0.386538   0.516077   8.316720   0.756284   2.431630  -0.109282   0.007047   3.994850  -0.220702   1.763080  -4.292830  -1.706900   0.075227 -73.163100  18.791300  -1.309270  -0.960730  -3.773940 -17.837100  16.281000 -12.935300   7.309040  37.651700  27.386100 -55.100600 -30.668800   0.002803   0.006554 -10.324900   0.001711   0.001135 -31.042300   6.096410 -10.006900 -25.839100   0.002139   0.001068 -18.087300   0.001505  -0.004400 -28.210700  -2.039820   3.797060 -34.013800   0.004516   0.002575 -22.652700   0.002003   0.002886 -28.286500  -2.044460   3.794560 -34.614900   0.003289   0.005703 -23.053500   0.002155   0.000394 -29.441700  -2.121440   3.752420 -44.266600   0.002157  -0.001195 -29.481500  -0.015609   0.000158  12.336000   0.534891   3.987800  67.553800  12.412000  -3.660650  -1.938870  -3.870930  14.130800 -11.056000  -5.833540   1.724910 -37.595800  24.224000  56.361200  27.453300   0.004769  -0.002413   8.726620   0.000000   0.000453  30.198800   8.236430  13.823300  25.537800  -0.000846  -0.005373  17.876500  -0.000246  -0.000118  28.479200   3.281630   6.023280  38.209000  -0.004728  -0.003767  25.446200  -0.003647  -0.000348  27.637800   2.090370   3.976730  30.294200  -0.003578  -0.005753  20.175900  -0.002597  -0.000236  31.876100   0.902920   1.448300  47.831100  -0.002603  -0.006424  31.855500  -0.006177  -0.002199   3.233180   8.407300   3.708790   0.985494   0.273260   7.835930  -1.447440  -3.901730   3.580650  -0.000000   0.000000  -0.000000   1.258350   7.110630  -4.490380   0.010257   1.550600 -10.587700   1.691660  -3.400610  -0.867848   0.000000   0.000000   0.000000
  0.250855  89.555900  -1.453300  -2.867940  -5.827100  -3.806400   0.282379   4.150050   0.394722   0.538140   8.301960   0.771918   2.447370  -0.107533   0.007063   4.020710  -0.216980   1.763090  -4.309800  -1.732900   0.065065 -73.203500  18.778400  -1.292510  -0.951660  -3.742990 -17.795300  16.272300 -12.913200   7.308430  37.646300  27.379800 -55.101400 -30.671400   0.002751   0.006644 -10.324900   0.001632   0.001137 -31.044700   6.097980 -10.008500 -25.839100   0.002178   0.001029 -18.087300   0.001527  -0.004398 -28.210800  -2.039650   3.796060 -34.020500   0.004727   0.002651 -22.657600   0.002129   0.002942 -28.286500  -2.044290   3.793560 -34.625500   0.003345   0.005715 -23.060600   0.002193   0.000508 -29.448400  -2.121320   3.751080 -44.276800   0.002190  -0.001134 -29.488300  -0.015693   0.000233  12.357700   0.476087   4.000810  67.521300  12.588000  -3.632140  -1.887180  -3.803320  13.968200 -11.082600  -5.753520   1.668180 -37.553300  24.193600  56.408800  27.503700   0.004766  -0.002413   8.751860   0.000000   0.000420  30.204400   8.236110  13.825200  25.537800  -0.000846  -0.005401  17.876500  -0.000248  -0.000116  28.478500   3.285110   6.029660  38.215800  -0.004697  -0.003734  25.451700  -0.003603  -0.000347  27.634900   2.087570   3.980030  30.268600  -0.003587  -0.005778  20.158900  -0.002537  -0.000238  31.881900   0.902726   1.448220  47.839900  -0.002580  -0.006452  31.861400  -0.006182  -0.002199   3.220660   8.441720   3.713060   0.984003   0.272080   7.859950  -1.440280  -3.928270   3.597200   0.000000   0.000000  -0.000000   1.257280   7.127710  -4.486890   0.011599   1.562840 -10.566000   1.694270  -3.426220  -0.852629  -0.000000   0.000000   0.000000
